<?xml version="1.0" encoding="utf-8"?>
<!-- Generator: Adobe Illustrator 24.2.3, SVG Export Plug-In . SVG Version: 6.00 Build 0)  -->
<svg version="1.1" id="Layer_1" xmlns="http://www.w3.org/2000/svg" xmlns:xlink="http://www.w3.org/1999/xlink" x="0px" y="0px"
	 viewBox="0 0 286.3 281.8" style="enable-background:new 0 0 286.3 281.8;" xml:space="preserve">
<style type="text/css">
	.st0{fill:#7AC943;stroke:#FFFFFF;stroke-width:0.5;stroke-miterlimit:10;}
	.st1{fill:#3FA9F5;stroke:#FFFFFF;stroke-width:0.5;stroke-miterlimit:10;}
	.st2{fill:#6EBAF7;stroke:#FFFFFF;stroke-width:0.5;stroke-miterlimit:10;}
	.st3{fill:#FCEE21;stroke:#FFFFFF;stroke-width:0.5;stroke-miterlimit:10;}
	.st4{fill:#E35A07;stroke:#FFFFFF;stroke-width:0.5;stroke-miterlimit:10;}
	.st5{fill:none;stroke:#FFFFFF;stroke-width:5;stroke-miterlimit:10;}
	.st6{fill:#4AA9F5;stroke:#FFFFFF;stroke-width:0.5;stroke-miterlimit:10;}
	.st7{fill:#92CBF9;stroke:#FFFFFF;stroke-width:0.5;stroke-miterlimit:10;}
	.st8{fill:#FCE1CB;stroke:#FFFFFF;stroke-width:0.5;stroke-miterlimit:10;}
	.st9{fill:#FF931E;stroke:#FFFFFF;stroke-width:0.5;stroke-miterlimit:10;}
	.st10{fill:#FF1D25;stroke:#FFFFFF;stroke-width:0.5;stroke-miterlimit:10;}
	.st11{fill:#FCBA08;stroke:#FFFFFF;stroke-width:0.5;stroke-miterlimit:10;}
	.st12{fill:#D8D8D8;stroke:#FFFFFF;stroke-width:0.5;stroke-miterlimit:10;}
	.st13{opacity:0.5;fill:none;stroke:#FFFFFF;stroke-width:6;stroke-miterlimit:10;enable-background:new    ;}
	.st14{fill:none;stroke:#BFBFBF;stroke-width:6;stroke-miterlimit:10;}
	.st15{fill:none;stroke:#B5B5B5;stroke-width:6;stroke-linecap:square;stroke-miterlimit:10;}
	.st16{fill:none;stroke:#B5B5B5;stroke-width:6;stroke-linecap:square;stroke-miterlimit:10;stroke-dasharray:2.3915,11.9576;}
	.st17{fill:none;stroke:#B5B5B5;stroke-width:6;stroke-linecap:square;stroke-miterlimit:10;stroke-dasharray:1.6219,8.1094;}
	.st18{fill:#F8C496;stroke:#FFFFFF;stroke-width:0.5;stroke-miterlimit:10;}
	.st19{fill:#FDD56B;stroke:#FFFFFF;stroke-width:0.5;stroke-miterlimit:10;}
	.st20{fill:#B7DDFB;stroke:#FFFFFF;stroke-width:0.5;stroke-miterlimit:10;}
	.st21{fill:#E5E5E5;}
	.st22{font-family:'HelveticaNeue-Thin';}
	.st23{font-size:49.538px;}
</style>
<path class="st0" d="M17.9,175.5c0,4,3.3,7.3,7.3,7.3c4,0,7.3-3.3,7.3-7.3c0-4-3.3-7.3-7.3-7.3S17.9,171.5,17.9,175.5z"/>
<path class="st0" d="M29.1,196.8c0,4,3.3,7.3,7.3,7.3c4,0,7.3-3.3,7.3-7.3c0-4-3.3-7.3-7.3-7.3S29.1,192.8,29.1,196.8z"/>
<path class="st0" d="M27.9,95.5c0,4,3.3,7.3,7.3,7.3c4,0,7.3-3.3,7.3-7.3c0-4-3.3-7.3-7.3-7.3S27.9,91.5,27.9,95.5z"/>
<circle class="st1" cx="102.1" cy="212.8" r="7.3"/>
<circle class="st1" cx="89.6" cy="196.5" r="7.3"/>
<path class="st1" d="M94.2,139.9c0,4,3.3,7.3,7.3,7.3c4,0,7.3-3.3,7.3-7.3c0-4-3.3-7.3-7.3-7.3C97.5,132.6,94.2,135.8,94.2,139.9z"
	/>
<path class="st2" d="M86.9,87.6c0,4,3.3,7.3,7.3,7.3c4,0,7.3-3.3,7.3-7.3c0-4-3.3-7.3-7.3-7.3C90.2,80.3,86.9,83.5,86.9,87.6z"/>
<path class="st3" d="M160.9,176c0,4,3.3,7.3,7.3,7.3c4,0,7.3-3.3,7.3-7.3c0-4-3.3-7.3-7.3-7.3C164.1,168.7,160.9,172,160.9,176z"/>
<path class="st4" d="M225.8,121.8c0,4,3.3,7.3,7.3,7.3c4,0,7.3-3.3,7.3-7.3c0-4-3.3-7.3-7.3-7.3C229,114.5,225.8,117.8,225.8,121.8z
	"/>
<path class="st5" d="M208.4,146.5"/>
<path class="st0" d="M26.6,151.8c0,4,3.3,7.3,7.3,7.3c4,0,7.3-3.3,7.3-7.3c0-4-3.3-7.3-7.3-7.3C29.9,144.5,26.6,147.8,26.6,151.8z"
	/>
<path class="st0" d="M20.1,133.3c0,4,3.3,7.3,7.3,7.3c4,0,7.3-3.3,7.3-7.3c0-4-3.3-7.3-7.3-7.3C23.4,126,20.1,129.3,20.1,133.3z"/>
<path class="st0" d="M21.9,115c0,4,3.3,7.3,7.3,7.3c4,0,7.3-3.3,7.3-7.3c0-4-3.3-7.3-7.3-7.3C25.1,107.7,21.9,111,21.9,115z"/>
<path class="st0" d="M24.2,61.1c0,4,3.3,7.3,7.3,7.3c4,0,7.3-3.3,7.3-7.3c0-4-3.3-7.3-7.3-7.3C27.5,53.8,24.2,57,24.2,61.1z"/>
<path class="st0" d="M22.1,33.1c0,4,3.3,7.3,7.3,7.3c4,0,7.3-3.3,7.3-7.3s-3.3-7.3-7.3-7.3C25.4,25.8,22.1,29,22.1,33.1z"/>
<path class="st1" d="M93.8,180.5c0,4,3.3,7.3,7.3,7.3c4,0,7.3-3.3,7.3-7.3c0-4-3.3-7.3-7.3-7.3C97,173.2,93.8,176.5,93.8,180.5z"/>
<path class="st1" d="M85.2,158.4c0,4,3.3,7.3,7.3,7.3c4,0,7.3-3.3,7.3-7.3c0-4-3.3-7.3-7.3-7.3C88.5,151.1,85.2,154.3,85.2,158.4z"
	/>
<path class="st6" d="M94.7,118.6c0,4,3.3,7.3,7.3,7.3c4,0,7.3-3.3,7.3-7.3c0-4-3.3-7.3-7.3-7.3C98,111.3,94.7,114.5,94.7,118.6z"/>
<path class="st7" d="M112.9,72.5c0,4,3.3,7.3,7.3,7.3c4,0,7.3-3.3,7.3-7.3c0-4-3.3-7.3-7.3-7.3C116.1,65.2,112.9,68.5,112.9,72.5z"
	/>
<path class="st8" d="M154.4,57.4c0,4,3.3,7.3,7.3,7.3c4,0,7.3-3.3,7.3-7.3c0-4-3.3-7.3-7.3-7.3C157.7,50.1,154.4,53.4,154.4,57.4z"
	/>
<path class="st9" d="M208.6,115.1c0,4,3.3,7.3,7.3,7.3c4,0,7.3-3.3,7.3-7.3c0-4-3.3-7.3-7.3-7.3
	C211.9,107.8,208.6,111.1,208.6,115.1z"/>
<path class="st3" d="M166.3,197.5c0,4,3.3,7.3,7.3,7.3c4,0,7.3-3.3,7.3-7.3c0-4-3.3-7.3-7.3-7.3
	C169.6,190.2,166.3,193.4,166.3,197.5z"/>
<path class="st3" d="M168.4,158.8c0,4,3.3,7.3,7.3,7.3c4,0,7.3-3.3,7.3-7.3s-3.3-7.3-7.3-7.3C171.7,151.5,168.4,154.7,168.4,158.8z"
	/>
<path class="st10" d="M246.2,162.7c0,4,3.3,7.3,7.3,7.3c4,0,7.3-3.3,7.3-7.3s-3.3-7.3-7.3-7.3C249.4,155.4,246.2,158.7,246.2,162.7z
	"/>
<path class="st10" d="M245.5,198.8c0,4,3.3,7.3,7.3,7.3c4,0,7.3-3.3,7.3-7.3c0-4-3.3-7.3-7.3-7.3
	C248.8,191.5,245.5,194.8,245.5,198.8z"/>
<path class="st10" d="M236.7,141.3c0,4,3.3,7.3,7.3,7.3c4,0,7.3-3.3,7.3-7.3c0-4-3.3-7.3-7.3-7.3C239.9,134,236.7,137.3,236.7,141.3
	z"/>
<path class="st11" d="M188.8,123.8c0,4,3.3,7.3,7.3,7.3c4,0,7.3-3.3,7.3-7.3c0-4-3.3-7.3-7.3-7.3
	C192.1,116.5,188.8,119.7,188.8,123.8z"/>
<path class="st9" d="M202.3,98.9c0,4,3.3,7.3,7.3,7.3s7.3-3.3,7.3-7.3c0-4-3.3-7.3-7.3-7.3S202.3,94.8,202.3,98.9z"/>
<path class="st8" d="M186.2,73.4c0,4,3.3,7.3,7.3,7.3c4,0,7.3-3.3,7.3-7.3c0-4-3.3-7.3-7.3-7.3C189.4,66.1,186.2,69.4,186.2,73.4z"
	/>
<path class="st12" d="M152.6,15c0,4,3.3,7.3,7.3,7.3c4,0,7.3-3.3,7.3-7.3c0-4-3.3-7.3-7.3-7.3C155.9,7.7,152.6,11,152.6,15z"/>
<path class="st12" d="M153.4,51.2c0,4,3.3,7.3,7.3,7.3c4,0,7.3-3.3,7.3-7.3s-3.3-7.3-7.3-7.3C156.7,43.9,153.4,47.2,153.4,51.2z"/>
<line class="st13" x1="32.4" y1="220" x2="32.4" y2="13"/>
<line class="st13" x1="153.4" y1="13" x2="153.4" y2="58"/>
<polyline class="st13" points="177.4,220 177.4,141.6 211.4,113.9 211.4,82.2 211.4,113.9 248.4,141.6 248.4,220 "/>
<polyline class="st13" points="98.4,220 98.4,82.2 153.7,57.6 211.4,82.2 211.4,114 "/>
<line class="st14" x1="31.4" y1="220" x2="31.4" y2="13"/>
<g>
	<line class="st14" x1="152.4" y1="13" x2="152.4" y2="58"/>
	<polyline class="st14" points="176.4,220 176.4,141.6 210.4,113.9 210.4,82.2 210.4,113.9 247.4,141.6 247.4,220 	"/>
	<polyline class="st14" points="97.4,220 97.4,82.2 152.7,57.6 210.4,82.2 210.4,114 	"/>
</g>
<g>
	<g>
		<line class="st15" x1="71" y1="118" x2="70.3" y2="118.8"/>
		<line class="st16" x1="62.4" y1="127.8" x2="56.9" y2="134"/>
		<line class="st15" x1="52.9" y1="138.5" x2="52.3" y2="139.3"/>
	</g>
</g>
<g>
	<g>
		<line class="st15" x1="50.7" y1="167.4" x2="51.4" y2="168.1"/>
		<line class="st17" x1="57" y1="174" x2="67.5" y2="185.3"/>
		<line class="st15" x1="70.3" y1="188.2" x2="71" y2="188.9"/>
	</g>
</g>
<path class="st12" d="M140.5,39.5c0,4,3.3,7.3,7.3,7.3c4,0,7.3-3.3,7.3-7.3c0-4-3.3-7.3-7.3-7.3C143.8,32.2,140.5,35.4,140.5,39.5z"
	/>
<path class="st12" d="M137.3,19c0,4,3.3,7.3,7.3,7.3c4,0,7.3-3.3,7.3-7.3c0-4-3.3-7.3-7.3-7.3C140.6,11.7,137.3,15,137.3,19z"/>
<path class="st18" d="M184,79.3c0,4,3.3,7.3,7.3,7.3c4,0,7.3-3.3,7.3-7.3c0-4-3.3-7.3-7.3-7.3C187.3,72,184,75.2,184,79.3z"/>
<path class="st18" d="M197.1,76c0,4,3.3,7.3,7.3,7.3s7.3-3.3,7.3-7.3c0-4-3.3-7.3-7.3-7.3C200.4,68.7,197.1,72,197.1,76z"/>
<path class="st8" d="M166.4,71.5c0,4,3.3,7.3,7.3,7.3c4,0,7.3-3.3,7.3-7.3c0-4-3.3-7.3-7.3-7.3C169.7,64.2,166.4,67.4,166.4,71.5z"
	/>
<path class="st9" d="M206.9,91.7c0,4,3.3,7.3,7.3,7.3s7.3-3.3,7.3-7.3c0-4-3.3-7.3-7.3-7.3S206.9,87.7,206.9,91.7z"/>
<path class="st11" d="M191.1,119.6c0,4,3.3,7.3,7.3,7.3c4,0,7.3-3.3,7.3-7.3c0-4-3.3-7.3-7.3-7.3
	C194.4,112.3,191.1,115.5,191.1,119.6z"/>
<path class="st4" d="M209.6,118.8c0,4,3.3,7.3,7.3,7.3c4,0,7.3-3.3,7.3-7.3c0-4-3.3-7.3-7.3-7.3
	C212.9,111.5,209.6,114.8,209.6,118.8z"/>
<path class="st9" d="M197.8,104.2c0,4,3.3,7.3,7.3,7.3c4,0,7.3-3.3,7.3-7.3s-3.3-7.3-7.3-7.3C201,96.9,197.8,100.2,197.8,104.2z"/>
<path class="st19" d="M175.6,126c0,4,3.3,7.3,7.3,7.3c4,0,7.3-3.3,7.3-7.3c0-4-3.3-7.3-7.3-7.3C178.9,118.7,175.6,122,175.6,126z"/>
<path class="st19" d="M178.5,138.5c0,4,3.3,7.3,7.3,7.3c4,0,7.3-3.3,7.3-7.3c0-4-3.3-7.3-7.3-7.3
	C181.8,131.2,178.5,134.5,178.5,138.5z"/>
<path class="st3" d="M169.6,164.2c0,4,3.3,7.3,7.3,7.3c4,0,7.3-3.3,7.3-7.3c0-4-3.3-7.3-7.3-7.3
	C172.9,156.9,169.6,160.2,169.6,164.2z"/>
<path class="st3" d="M176.5,204.9c0,4,3.3,7.3,7.3,7.3c4,0,7.3-3.3,7.3-7.3s-3.3-7.3-7.3-7.3C179.7,197.6,176.5,200.9,176.5,204.9z"
	/>
<path class="st3" d="M176.5,182.6c0,4,3.3,7.3,7.3,7.3c4,0,7.3-3.3,7.3-7.3c0-4-3.3-7.3-7.3-7.3
	C179.7,175.3,176.5,178.6,176.5,182.6z"/>
<path class="st4" d="M233.9,125.7c0,4,3.3,7.3,7.3,7.3c4,0,7.3-3.3,7.3-7.3c0-4-3.3-7.3-7.3-7.3
	C237.1,118.4,233.9,121.7,233.9,125.7z"/>
<path class="st4" d="M221.7,137.4c0,4,3.3,7.3,7.3,7.3c4,0,7.3-3.3,7.3-7.3c0-4-3.3-7.3-7.3-7.3C225,130.1,221.7,133.3,221.7,137.4z
	"/>
<path class="st10" d="M244.6,159.7c0,4,3.3,7.3,7.3,7.3c4,0,7.3-3.3,7.3-7.3c0-4-3.3-7.3-7.3-7.3
	C247.8,152.4,244.6,155.7,244.6,159.7z"/>
<path class="st10" d="M235.4,193.8c0,4,3.3,7.3,7.3,7.3c4,0,7.3-3.3,7.3-7.3c0-4-3.3-7.3-7.3-7.3
	C238.7,186.5,235.4,189.8,235.4,193.8z"/>
<path class="st10" d="M231.8,169.5c0,4,3.3,7.3,7.3,7.3c4,0,7.3-3.3,7.3-7.3s-3.3-7.3-7.3-7.3C235.1,162.2,231.8,165.5,231.8,169.5z
	"/>
<path class="st20" d="M118.5,72.5c0,4,3.3,7.3,7.3,7.3c4,0,7.3-3.3,7.3-7.3c0-4-3.3-7.3-7.3-7.3C121.8,65.2,118.5,68.4,118.5,72.5z"
	/>
<path class="st20" d="M132.2,60.4c0,4,3.3,7.3,7.3,7.3c4,0,7.3-3.3,7.3-7.3c0-4-3.3-7.3-7.3-7.3C135.4,53.1,132.2,56.4,132.2,60.4z"
	/>
<path class="st2" d="M95.9,76.1c0,4,3.3,7.3,7.3,7.3c4,0,7.3-3.3,7.3-7.3c0-4-3.3-7.3-7.3-7.3C99.2,68.8,95.9,72,95.9,76.1z"/>
<path class="st6" d="M96.1,98.8c0,4,3.3,7.3,7.3,7.3c4,0,7.3-3.3,7.3-7.3c0-4-3.3-7.3-7.3-7.3C99.4,91.5,96.1,94.7,96.1,98.8z"/>
<path class="st6" d="M85.5,117.3c0,4,3.3,7.3,7.3,7.3c4,0,7.3-3.3,7.3-7.3c0-4-3.3-7.3-7.3-7.3C88.8,110,85.5,113.3,85.5,117.3z"/>
<path class="st1" d="M90,138c0,4,3.3,7.3,7.3,7.3c4,0,7.3-3.3,7.3-7.3c0-4-3.3-7.3-7.3-7.3C93.3,130.7,90,134,90,138z"/>
<circle class="st1" cx="103.3" cy="162.8" r="7.3"/>
<path class="st1" d="M86.6,175.7c0,4,3.3,7.3,7.3,7.3s7.3-3.3,7.3-7.3c0-4-3.3-7.3-7.3-7.3S86.6,171.7,86.6,175.7z"/>
<path class="st0" d="M29.7,22.2c0,4,3.3,7.3,7.3,7.3c4,0,7.3-3.3,7.3-7.3c0-4-3.3-7.3-7.3-7.3C32.9,14.9,29.7,18.2,29.7,22.2z"/>
<path class="st0" d="M29.8,45.7c0,4,3.3,7.3,7.3,7.3c4,0,7.3-3.3,7.3-7.3c0-4-3.3-7.3-7.3-7.3C33.1,38.4,29.8,41.7,29.8,45.7z"/>
<path class="st0" d="M18.1,59.1c0,4,3.3,7.3,7.3,7.3c4,0,7.3-3.3,7.3-7.3s-3.3-7.3-7.3-7.3C21.4,51.8,18.1,55.1,18.1,59.1z"/>
<path class="st0" d="M28.9,78.4c0,4,3.3,7.3,7.3,7.3c4,0,7.3-3.3,7.3-7.3c0-4-3.3-7.3-7.3-7.3C32.2,71.1,28.9,74.3,28.9,78.4z"/>
<path class="st0" d="M17.9,91.8c0,4,3.3,7.3,7.3,7.3c4,0,7.3-3.3,7.3-7.3c0-4-3.3-7.3-7.3-7.3S17.9,87.8,17.9,91.8z"/>
<path class="st0" d="M31.3,104.1c0,4,3.3,7.3,7.3,7.3c4,0,7.3-3.3,7.3-7.3c0-4-3.3-7.3-7.3-7.3C34.6,96.8,31.3,100.1,31.3,104.1z"/>
<path class="st0" d="M23.4,138.9c0,4,3.3,7.3,7.3,7.3c4,0,7.3-3.3,7.3-7.3c0-4-3.3-7.3-7.3-7.3C26.7,131.6,23.4,134.9,23.4,138.9z"
	/>
<path class="st0" d="M20.7,159.8c0,4,3.3,7.3,7.3,7.3c4,0,7.3-3.3,7.3-7.3c0-4-3.3-7.3-7.3-7.3C24,152.5,20.7,155.8,20.7,159.8z"/>
<path class="st0" d="M25.8,180c0,4,3.3,7.3,7.3,7.3c4,0,7.3-3.3,7.3-7.3c0-4-3.3-7.3-7.3-7.3C29.1,172.7,25.8,175.9,25.8,180z"/>
<path class="st10" d="M248.2,179.1c0,4,3.3,7.3,7.3,7.3c4,0,7.3-3.3,7.3-7.3c0-4-3.3-7.3-7.3-7.3
	C251.5,171.8,248.2,175.1,248.2,179.1z"/>
<path class="st10" d="M234.2,147.6c0,4,3.3,7.3,7.3,7.3c4,0,7.3-3.3,7.3-7.3c0-4-3.3-7.3-7.3-7.3
	C237.4,140.3,234.2,143.5,234.2,147.6z"/>
<path class="st3" d="M162.7,213.6c0,4,3.3,7.3,7.3,7.3c4,0,7.3-3.3,7.3-7.3s-3.3-7.3-7.3-7.3C166,206.3,162.7,209.6,162.7,213.6z"/>
<path class="st3" d="M163.4,144.2c0,4,3.3,7.3,7.3,7.3c4,0,7.3-3.3,7.3-7.3c0-4-3.3-7.3-7.3-7.3
	C166.6,136.9,163.4,140.2,163.4,144.2z"/>
<path class="st10" d="M240.4,211.3c0,4,3.3,7.3,7.3,7.3c4,0,7.3-3.3,7.3-7.3c0-4-3.3-7.3-7.3-7.3C243.7,204,240.4,207.3,240.4,211.3
	z"/>
<path class="st6" d="M82.4,90c0,4,3.3,7.3,7.3,7.3c4,0,7.3-3.3,7.3-7.3c0-4-3.3-7.3-7.3-7.3C85.7,82.7,82.4,86,82.4,90z"/>
<circle class="st1" cx="89.6" cy="155.3" r="7.3"/>
<circle class="st1" cx="94.6" cy="196.5" r="7.3"/>
<circle class="st1" cx="92.1" cy="212.8" r="7.3"/>
<path class="st0" d="M19.1,115.5c0,4,3.3,7.3,7.3,7.3c4,0,7.3-3.3,7.3-7.3c0-4-3.3-7.3-7.3-7.3S19.1,111.5,19.1,115.5z"/>
<path class="st0" d="M17.9,196.8c0,4,3.3,7.3,7.3,7.3c4,0,7.3-3.3,7.3-7.3c0-4-3.3-7.3-7.3-7.3S17.9,192.8,17.9,196.8z"/>
<path class="st0" d="M25.4,211.8c0,4,3.3,7.3,7.3,7.3c4,0,7.3-3.3,7.3-7.3c0-4-3.3-7.3-7.3-7.3S25.4,207.8,25.4,211.8z"/>
<text transform="matrix(1 0 0 1 17.8906 269.498)" class="st21 st22 st23">Trapnell Lab</text>
</svg>
