<?xml version="1.0" encoding="utf-8"?>
<!-- Generator: Adobe Illustrator 16.0.0, SVG Export Plug-In . SVG Version: 6.00 Build 0)  -->
<!DOCTYPE svg PUBLIC "-//W3C//DTD SVG 1.1//EN" "http://www.w3.org/Graphics/SVG/1.1/DTD/svg11.dtd">
<svg version="1.1" id="Layer_1" xmlns="http://www.w3.org/2000/svg" xmlns:xlink="http://www.w3.org/1999/xlink" x="0px" y="0px"
	 width="306.25px" height="228px" viewBox="0 0 306.25 228" enable-background="new 0 0 306.25 228" xml:space="preserve">
<rect fill="#4D4D4D" width="288" height="228"/>
<g>
	<path fill="#7AC943" stroke="#000000" stroke-width="0.5" stroke-miterlimit="10" d="M19.433,175.541
		c0,4.03,3.266,7.299,7.299,7.299c4.034,0,7.301-3.269,7.301-7.299c0-4.039-3.267-7.301-7.301-7.301
		C22.698,168.24,19.433,171.502,19.433,175.541z"/>
	<path fill="#7AC943" stroke="#000000" stroke-width="0.5" stroke-miterlimit="10" d="M30.683,196.791
		c0,4.03,3.266,7.299,7.299,7.299c4.034,0,7.301-3.269,7.301-7.299c0-4.039-3.267-7.301-7.301-7.301
		C33.948,189.49,30.683,192.752,30.683,196.791z"/>
	<path fill="#7AC943" stroke="#000000" stroke-width="0.5" stroke-miterlimit="10" d="M29.433,95.541
		c0,4.03,3.266,7.299,7.299,7.299c4.034,0,7.301-3.269,7.301-7.299c0-4.039-3.267-7.301-7.301-7.301
		C32.698,88.24,29.433,91.502,29.433,95.541z"/>
	<circle fill="#3FA9F5" stroke="#000000" stroke-width="0.5" stroke-miterlimit="10" cx="103.637" cy="212.755" r="7.305"/>
	<circle fill="#3FA9F5" stroke="#000000" stroke-width="0.5" stroke-miterlimit="10" cx="91.137" cy="196.505" r="7.305"/>
	<path fill="#3FA9F5" stroke="#000000" stroke-width="0.5" stroke-miterlimit="10" d="M95.773,139.867
		c0,4.036,3.272,7.302,7.306,7.302c4.032,0,7.301-3.266,7.301-7.302c0-4.032-3.269-7.302-7.301-7.302
		C99.046,132.565,95.773,135.835,95.773,139.867z"/>
	<path fill="#6EBAF7" stroke="#000000" stroke-width="0.5" stroke-miterlimit="10" d="M88.515,87.583c0,4.03,3.271,7.301,7.3,7.301
		c4.034,0,7.306-3.271,7.306-7.301c0-4.04-3.271-7.306-7.306-7.306C91.785,80.277,88.515,83.543,88.515,87.583z"/>
	<path fill="#FCEE21" stroke="#000000" stroke-width="0.5" stroke-miterlimit="10" d="M162.425,176.001
		c0,4.034,3.272,7.305,7.305,7.305c4.035,0,7.311-3.271,7.311-7.305c0-4.031-3.275-7.3-7.311-7.3
		C165.697,168.701,162.425,171.97,162.425,176.001z"/>
	<path fill="#E35A07" stroke="#000000" stroke-width="0.5" stroke-miterlimit="10" d="M227.349,121.833
		c0,4.027,3.266,7.299,7.296,7.299c4.036,0,7.312-3.271,7.312-7.299c0-4.035-3.275-7.308-7.312-7.308
		C230.614,114.525,227.349,117.798,227.349,121.833z"/>
	<path fill="none" stroke="#000000" stroke-width="5" stroke-miterlimit="10" d="M209.949,146.518"/>
	<path fill="#7AC943" stroke="#000000" stroke-width="0.5" stroke-miterlimit="10" d="M28.183,151.813
		c0,4.031,3.266,7.305,7.299,7.305c4.034,0,7.301-3.273,7.301-7.305c0-4.034-3.267-7.297-7.301-7.297
		C31.448,144.517,28.183,147.779,28.183,151.813z"/>
	<path fill="#7AC943" stroke="#000000" stroke-width="0.5" stroke-miterlimit="10" d="M21.715,133.33
		c0,4.04,3.274,7.309,7.303,7.309c4.042,0,7.309-3.269,7.309-7.309c0-4.033-3.267-7.298-7.309-7.298
		C24.989,126.032,21.715,129.297,21.715,133.33z"/>
	<path fill="#7AC943" stroke="#000000" stroke-width="0.5" stroke-miterlimit="10" d="M23.428,115.036
		c0,4.034,3.274,7.305,7.308,7.305c4.032,0,7.298-3.271,7.298-7.305c0-4.035-3.266-7.308-7.298-7.308
		C26.702,107.729,23.428,111.001,23.428,115.036z"/>
	<path fill="#7AC943" stroke="#000000" stroke-width="0.5" stroke-miterlimit="10" d="M25.755,61.062
		c0,4.034,3.271,7.302,7.31,7.302c4.031,0,7.297-3.268,7.297-7.302c0-4.035-3.266-7.304-7.297-7.304
		C29.025,53.758,25.755,57.026,25.755,61.062z"/>
	<path fill="#7AC943" stroke="#000000" stroke-width="0.5" stroke-miterlimit="10" d="M23.678,33.053
		c0,4.033,3.273,7.306,7.304,7.306c4.031,0,7.306-3.272,7.306-7.306c0-4.034-3.274-7.3-7.306-7.3
		C26.951,25.753,23.678,29.019,23.678,33.053z"/>
	<path fill="#3FA9F5" stroke="#000000" stroke-width="0.5" stroke-miterlimit="10" d="M95.347,180.532c0,4.03,3.27,7.3,7.302,7.3
		c4.036,0,7.308-3.27,7.308-7.3c0-4.042-3.271-7.306-7.308-7.306C98.616,173.227,95.347,176.49,95.347,180.532z"/>
	<path fill="#3FA9F5" stroke="#000000" stroke-width="0.5" stroke-miterlimit="10" d="M86.764,158.351
		c0,4.03,3.266,7.305,7.305,7.305c4.032,0,7.301-3.274,7.301-7.305c0-4.038-3.269-7.301-7.301-7.301
		C90.029,151.05,86.764,154.312,86.764,158.351z"/>
	<path fill="#4AA9F5" stroke="#000000" stroke-width="0.5" stroke-miterlimit="10" d="M96.32,118.559
		c0,4.031,3.269,7.303,7.301,7.303c4.04,0,7.307-3.271,7.307-7.303c0-4.037-3.267-7.308-7.307-7.308
		C99.589,111.251,96.32,114.521,96.32,118.559z"/>
	<path fill="#92CBF9" stroke="#000000" stroke-width="0.5" stroke-miterlimit="10" d="M114.428,72.534
		c0,4.039,3.277,7.307,7.311,7.307c4.028,0,7.301-3.268,7.301-7.307c0-4.031-3.272-7.305-7.301-7.305
		C117.705,65.229,114.428,68.503,114.428,72.534z"/>
	<path fill="#FCE1CB" stroke="#000000" stroke-width="0.5" stroke-miterlimit="10" d="M155.956,57.432
		c0,4.038,3.272,7.31,7.305,7.31c4.03,0,7.298-3.271,7.298-7.31c0-4.032-3.268-7.304-7.298-7.304
		C159.229,50.128,155.956,53.399,155.956,57.432z"/>
	<path fill="#FF931E" stroke="#000000" stroke-width="0.5" stroke-miterlimit="10" d="M210.221,115.084
		c0,4.031,3.271,7.304,7.302,7.304c4.035,0,7.307-3.272,7.307-7.304c0-4.034-3.271-7.306-7.307-7.306
		C213.492,107.778,210.221,111.05,210.221,115.084z"/>
	<path fill="#FCEE21" stroke="#000000" stroke-width="0.5" stroke-miterlimit="10" d="M167.913,197.459
		c0,4.032,3.267,7.303,7.296,7.303c4.033,0,7.309-3.271,7.309-7.303c0-4.043-3.275-7.306-7.309-7.306
		C171.18,190.153,167.913,193.416,167.913,197.459z"/>
	<path fill="#FCEE21" stroke="#000000" stroke-width="0.5" stroke-miterlimit="10" d="M170.018,158.771
		c0,4.032,3.275,7.306,7.305,7.306c4.037,0,7.3-3.273,7.3-7.306s-3.263-7.3-7.3-7.3
		C173.293,151.471,170.018,154.738,170.018,158.771z"/>
	<path fill="#FF1D25" stroke="#000000" stroke-width="0.5" stroke-miterlimit="10" d="M247.753,162.739
		c0,4.033,3.271,7.304,7.305,7.304c4.029,0,7.298-3.271,7.298-7.304s-3.269-7.306-7.298-7.306
		C251.024,155.434,247.753,158.706,247.753,162.739z"/>
	<path fill="#FF1D25" stroke="#000000" stroke-width="0.5" stroke-miterlimit="10" d="M247.079,198.805
		c0,4.031,3.269,7.304,7.304,7.304c4.029,0,7.303-3.272,7.303-7.304c0-4.034-3.273-7.306-7.303-7.306
		C250.348,191.499,247.079,194.771,247.079,198.805z"/>
	<path fill="#FF1D25" stroke="#000000" stroke-width="0.5" stroke-miterlimit="10" d="M238.258,141.294
		c0,4.034,3.264,7.304,7.297,7.304c4.034,0,7.305-3.27,7.305-7.304c0-4.037-3.271-7.308-7.305-7.308
		C241.521,133.986,238.258,137.257,238.258,141.294z"/>
	<path fill="#FCBA08" stroke="#000000" stroke-width="0.5" stroke-miterlimit="10" d="M190.373,123.76
		c0,4.04,3.275,7.307,7.307,7.307c4.032,0,7.296-3.267,7.296-7.307c0-4.031-3.264-7.299-7.296-7.299
		C193.648,116.461,190.373,119.729,190.373,123.76z"/>
	<path fill="#FF931E" stroke="#000000" stroke-width="0.5" stroke-miterlimit="10" d="M203.862,98.854
		c0,4.034,3.275,7.304,7.306,7.304s7.298-3.27,7.298-7.304c0-4.029-3.268-7.309-7.298-7.309S203.862,94.824,203.862,98.854z"/>
	<path fill="#FCE1CB" stroke="#000000" stroke-width="0.5" stroke-miterlimit="10" d="M187.736,73.396
		c0,4.033,3.266,7.302,7.301,7.302c4.033,0,7.31-3.269,7.31-7.302c0-4.036-3.276-7.302-7.31-7.302
		C191.002,66.095,187.736,69.36,187.736,73.396z"/>
	<path fill="#FFFFFF" stroke="#000000" stroke-width="0.5" stroke-miterlimit="10" d="M154.193,15.031
		c0,4.041,3.264,7.31,7.303,7.31c4.037,0,7.305-3.269,7.305-7.31c0-4.028-3.268-7.303-7.305-7.303
		C157.457,7.729,154.193,11.003,154.193,15.031z"/>
	<path fill="#FFFFFF" stroke="#000000" stroke-width="0.5" stroke-miterlimit="10" d="M154.979,51.198
		c0,4.032,3.272,7.308,7.299,7.308c4.036,0,7.311-3.275,7.311-7.308s-3.274-7.302-7.311-7.302
		C158.251,43.896,154.979,47.166,154.979,51.198z"/>
	<line opacity="0.5" fill="none" stroke="#4D4D4D" stroke-width="6" stroke-miterlimit="10" x1="34" y1="220" x2="34" y2="13"/>
	<line opacity="0.5" fill="none" stroke="#4D4D4D" stroke-width="6" stroke-miterlimit="10" x1="155" y1="13" x2="155" y2="58"/>
	<polyline opacity="0.5" fill="none" stroke="#4D4D4D" stroke-width="6" stroke-miterlimit="10" points="179,220 179,141.588 
		213,113.94 213,82.195 213,113.94 250,141.588 250,220 	"/>
	<polyline opacity="0.5" fill="none" stroke="#4D4D4D" stroke-width="6" stroke-miterlimit="10" points="100,220 100,82.195 
		155.311,57.621 213,82.195 213,114 	"/>
	<line fill="none" stroke="#E6E6E6" stroke-width="6" stroke-miterlimit="10" x1="33" y1="220" x2="33" y2="13"/>
	<g>
		<line fill="none" stroke="#E6E6E6" stroke-width="6" stroke-miterlimit="10" x1="154" y1="13" x2="154" y2="58"/>
		<polyline fill="none" stroke="#E6E6E6" stroke-width="6" stroke-miterlimit="10" points="178,220 178,141.588 212,113.94 
			212,82.196 212,113.94 249,141.588 249,220 		"/>
		<polyline fill="none" stroke="#E6E6E6" stroke-width="6" stroke-miterlimit="10" points="99,220 99,82.196 154.311,57.62 
			212,82.196 212,114 		"/>
	</g>
	<g>
		<g>
			
				<line fill="none" stroke="#E6E6E6" stroke-width="6" stroke-linecap="square" stroke-miterlimit="10" x1="72.562" y1="118.045" x2="71.901" y2="118.795"/>
			
				<line fill="none" stroke="#E6E6E6" stroke-width="6" stroke-linecap="square" stroke-miterlimit="10" stroke-dasharray="2.3915,11.9576" x1="63.996" y1="127.767" x2="58.462" y2="134.047"/>
			
				<line fill="none" stroke="#E6E6E6" stroke-width="6" stroke-linecap="square" stroke-miterlimit="10" x1="54.51" y1="138.533" x2="53.849" y2="139.283"/>
		</g>
	</g>
	<g>
		<g>
			
				<line fill="none" stroke="#E6E6E6" stroke-width="6" stroke-linecap="square" stroke-miterlimit="10" x1="52.312" y1="167.398" x2="52.997" y2="168.127"/>
			
				<line fill="none" stroke="#E6E6E6" stroke-width="6" stroke-linecap="square" stroke-miterlimit="10" stroke-dasharray="1.6219,8.1094" x1="58.55" y1="174.037" x2="69.101" y2="185.266"/>
			
				<line fill="none" stroke="#E6E6E6" stroke-width="6" stroke-linecap="square" stroke-miterlimit="10" x1="71.878" y1="188.221" x2="72.562" y2="188.949"/>
		</g>
	</g>
	<path fill="#FFFFFF" stroke="#000000" stroke-width="0.5" stroke-miterlimit="10" d="M142.107,39.467
		c0,4.037,3.27,7.308,7.303,7.308c4.031,0,7.305-3.271,7.305-7.308c0-4.029-3.273-7.307-7.305-7.307
		C145.377,32.16,142.107,35.438,142.107,39.467z"/>
	<path fill="#FFFFFF" stroke="#000000" stroke-width="0.5" stroke-miterlimit="10" d="M138.87,18.991
		c0,4.031,3.274,7.302,7.304,7.302c4.036,0,7.309-3.271,7.309-7.302c0-4.034-3.272-7.306-7.309-7.306
		C142.145,11.686,138.87,14.957,138.87,18.991z"/>
	<path fill="#F8C496" stroke="#000000" stroke-width="0.5" stroke-miterlimit="10" d="M185.58,79.26
		c0,4.035,3.272,7.304,7.309,7.304c4.039,0,7.306-3.269,7.306-7.304c0-4.038-3.267-7.309-7.306-7.309
		C188.853,71.951,185.58,75.222,185.58,79.26z"/>
	<path fill="#F8C496" stroke="#000000" stroke-width="0.5" stroke-miterlimit="10" d="M198.706,76.03c0,4.03,3.276,7.3,7.309,7.3
		c4.033,0,7.299-3.27,7.299-7.3c0-4.038-3.266-7.305-7.299-7.305C201.982,68.726,198.706,71.992,198.706,76.03z"/>
	<path fill="#FCE1CB" stroke="#000000" stroke-width="0.5" stroke-miterlimit="10" d="M167.963,71.466
		c0,4.033,3.271,7.308,7.304,7.308c4.032,0,7.302-3.274,7.302-7.308c0-4.032-3.27-7.302-7.302-7.302
		C171.233,64.164,167.963,67.434,167.963,71.466z"/>
	<path fill="#FF931E" stroke="#000000" stroke-width="0.5" stroke-miterlimit="10" d="M208.472,91.703
		c0,4.031,3.271,7.302,7.305,7.302c4.034,0,7.3-3.271,7.3-7.302c0-4.039-3.266-7.305-7.3-7.305
		C211.743,84.398,208.472,87.664,208.472,91.703z"/>
	<path fill="#FCBA08" stroke="#000000" stroke-width="0.5" stroke-miterlimit="10" d="M192.717,119.566
		c0,4.042,3.275,7.31,7.307,7.31c4.035,0,7.305-3.268,7.305-7.31c0-4.031-3.27-7.304-7.305-7.304
		C195.992,112.263,192.717,115.535,192.717,119.566z"/>
	<path fill="#E35A07" stroke="#000000" stroke-width="0.5" stroke-miterlimit="10" d="M211.16,118.815
		c0,4.033,3.273,7.304,7.306,7.304c4.039,0,7.306-3.271,7.306-7.304c0-4.036-3.267-7.306-7.306-7.306
		C214.434,111.51,211.16,114.779,211.16,118.815z"/>
	<path fill="#FF931E" stroke="#000000" stroke-width="0.5" stroke-miterlimit="10" d="M199.336,104.238
		c0,4.034,3.27,7.306,7.307,7.306c4.033,0,7.298-3.271,7.298-7.306c0-4.035-3.265-7.304-7.298-7.304
		C202.605,96.935,199.336,100.203,199.336,104.238z"/>
	<path fill="#FDD56B" stroke="#000000" stroke-width="0.5" stroke-miterlimit="10" d="M177.18,126.037
		c0,4.036,3.27,7.305,7.302,7.305c4.029,0,7.301-3.269,7.301-7.305c0-4.037-3.271-7.307-7.301-7.307
		C180.449,118.73,177.18,122,177.18,126.037z"/>
	<path fill="#FDD56B" stroke="#000000" stroke-width="0.5" stroke-miterlimit="10" d="M180.116,138.5
		c0,4.039,3.271,7.308,7.308,7.308c4.033,0,7.297-3.269,7.297-7.308c0-4.031-3.264-7.304-7.297-7.304
		C183.387,131.196,180.116,134.469,180.116,138.5z"/>
	<path fill="#FCEE21" stroke="#000000" stroke-width="0.5" stroke-miterlimit="10" d="M171.189,164.189
		c0,4.038,3.267,7.309,7.306,7.309c4.029,0,7.3-3.271,7.3-7.309c0-4.031-3.271-7.301-7.3-7.301
		C174.456,156.889,171.189,160.158,171.189,164.189z"/>
	<path fill="#FCEE21" stroke="#000000" stroke-width="0.5" stroke-miterlimit="10" d="M178.03,204.885
		c0,4.031,3.273,7.307,7.302,7.307c4.033,0,7.307-3.275,7.307-7.307s-3.273-7.302-7.307-7.302
		C181.304,197.583,178.03,200.854,178.03,204.885z"/>
	<path fill="#FCEE21" stroke="#000000" stroke-width="0.5" stroke-miterlimit="10" d="M178.033,182.578
		c0,4.039,3.279,7.311,7.312,7.311c4.027,0,7.306-3.271,7.306-7.311c0-4.028-3.278-7.305-7.306-7.305
		C181.312,175.273,178.033,178.55,178.033,182.578z"/>
	<path fill="#E35A07" stroke="#000000" stroke-width="0.5" stroke-miterlimit="10" d="M235.436,125.681
		c0,4.03,3.269,7.306,7.305,7.306c4.029,0,7.299-3.275,7.299-7.306c0-4.029-3.27-7.3-7.299-7.3
		C238.704,118.381,235.436,121.651,235.436,125.681z"/>
	<path fill="#E35A07" stroke="#000000" stroke-width="0.5" stroke-miterlimit="10" d="M223.304,137.357
		c0,4.036,3.274,7.305,7.305,7.305c4.029,0,7.305-3.269,7.305-7.305c0-4.03-3.275-7.301-7.305-7.301
		C226.578,130.057,223.304,133.327,223.304,137.357z"/>
	<path fill="#FF1D25" stroke="#000000" stroke-width="0.5" stroke-miterlimit="10" d="M246.146,159.693
		c0,4.037,3.271,7.306,7.303,7.306c4.037,0,7.303-3.269,7.303-7.306c0-4.034-3.266-7.304-7.303-7.304
		C249.417,152.39,246.146,155.659,246.146,159.693z"/>
	<path fill="#FF1D25" stroke="#000000" stroke-width="0.5" stroke-miterlimit="10" d="M236.982,193.809
		c0,4.034,3.27,7.305,7.298,7.305c4.032,0,7.31-3.271,7.31-7.305c0-4.037-3.277-7.304-7.31-7.304
		C240.252,186.505,236.982,189.771,236.982,193.809z"/>
	<path fill="#FF1D25" stroke="#000000" stroke-width="0.5" stroke-miterlimit="10" d="M233.374,169.52
		c0,4.033,3.276,7.305,7.308,7.305c4.033,0,7.302-3.271,7.302-7.305c0-4.034-3.269-7.298-7.302-7.298
		C236.65,162.222,233.374,165.485,233.374,169.52z"/>
	<path fill="#B7DDFB" stroke="#000000" stroke-width="0.5" stroke-miterlimit="10" d="M120.062,72.456
		c0,4.035,3.275,7.305,7.301,7.305c4.039,0,7.308-3.27,7.308-7.305c0-4.034-3.269-7.305-7.308-7.305
		C123.338,65.151,120.062,68.422,120.062,72.456z"/>
	<path fill="#B7DDFB" stroke="#000000" stroke-width="0.5" stroke-miterlimit="10" d="M133.735,60.383
		c0,4.035,3.272,7.307,7.302,7.307c4.035,0,7.302-3.271,7.302-7.307c0-4.031-3.267-7.303-7.302-7.303
		C137.008,53.08,133.735,56.352,133.735,60.383z"/>
	<path fill="#6EBAF7" stroke="#000000" stroke-width="0.5" stroke-miterlimit="10" d="M97.456,76.069
		c0,4.034,3.27,7.302,7.302,7.302c4.034,0,7.307-3.268,7.307-7.302c0-4.036-3.272-7.304-7.307-7.304
		C100.726,68.766,97.456,72.033,97.456,76.069z"/>
	<path fill="#4AA9F5" stroke="#000000" stroke-width="0.5" stroke-miterlimit="10" d="M97.721,98.756
		c0,4.038,3.271,7.309,7.305,7.309c4.03,0,7.307-3.271,7.307-7.309c0-4.029-3.276-7.303-7.307-7.303
		C100.991,91.453,97.721,94.727,97.721,98.756z"/>
	<path fill="#4AA9F5" stroke="#000000" stroke-width="0.5" stroke-miterlimit="10" d="M87.104,117.33
		c0,4.032,3.27,7.303,7.305,7.303c4.032,0,7.3-3.271,7.3-7.303c0-4.039-3.268-7.297-7.3-7.297
		C90.374,110.033,87.104,113.291,87.104,117.33z"/>
	<path fill="#3FA9F5" stroke="#000000" stroke-width="0.5" stroke-miterlimit="10" d="M91.557,138.021
		c0,4.039,3.275,7.303,7.306,7.303c4.032,0,7.304-3.264,7.304-7.303c0-4.03-3.271-7.305-7.304-7.305
		C94.832,130.717,91.557,133.991,91.557,138.021z"/>
	<circle fill="#3FA9F5" stroke="#000000" stroke-width="0.5" stroke-miterlimit="10" cx="104.887" cy="162.755" r="7.305"/>
	<path fill="#3FA9F5" stroke="#000000" stroke-width="0.5" stroke-miterlimit="10" d="M88.128,175.707
		c0,4.029,3.271,7.301,7.306,7.301s7.301-3.271,7.301-7.301c0-4.036-3.266-7.302-7.301-7.302S88.128,171.671,88.128,175.707z"/>
	<path fill="#7AC943" stroke="#000000" stroke-width="0.5" stroke-miterlimit="10" d="M31.244,22.24
		c0,4.039,3.271,7.306,7.305,7.306c4.028,0,7.305-3.267,7.305-7.306c0-4.029-3.276-7.298-7.305-7.298
		C34.516,14.942,31.244,18.211,31.244,22.24z"/>
	<path fill="#7AC943" stroke="#000000" stroke-width="0.5" stroke-miterlimit="10" d="M31.406,45.738
		c0,4.038,3.268,7.307,7.304,7.307c4.028,0,7.305-3.269,7.305-7.307c0-4.029-3.276-7.304-7.305-7.304
		C34.674,38.435,31.406,41.709,31.406,45.738z"/>
	<path fill="#7AC943" stroke="#000000" stroke-width="0.5" stroke-miterlimit="10" d="M19.702,59.09
		c0,4.036,3.274,7.307,7.303,7.307c4.04,0,7.31-3.271,7.31-7.307s-3.27-7.303-7.31-7.303C22.977,51.787,19.702,55.054,19.702,59.09z
		"/>
	<path fill="#7AC943" stroke="#000000" stroke-width="0.5" stroke-miterlimit="10" d="M30.512,78.391c0,4.032,3.273,7.301,7.3,7.301
		c4.04,0,7.308-3.269,7.308-7.301c0-4.041-3.268-7.307-7.308-7.307C33.785,71.084,30.512,74.35,30.512,78.391z"/>
	<path fill="#7AC943" stroke="#000000" stroke-width="0.5" stroke-miterlimit="10" d="M19.433,91.791
		c0,4.03,3.266,7.299,7.299,7.299c4.034,0,7.301-3.269,7.301-7.299c0-4.039-3.267-7.301-7.301-7.301
		C22.698,84.49,19.433,87.752,19.433,91.791z"/>
	<path fill="#7AC943" stroke="#000000" stroke-width="0.5" stroke-miterlimit="10" d="M32.902,104.126
		c0,4.034,3.269,7.304,7.301,7.304c4.034,0,7.307-3.27,7.307-7.304c0-4.036-3.272-7.306-7.307-7.306
		C36.171,96.82,32.902,100.09,32.902,104.126z"/>
	<path fill="#7AC943" stroke="#000000" stroke-width="0.5" stroke-miterlimit="10" d="M25.01,138.945
		c0,4.037,3.268,7.303,7.304,7.303c4.029,0,7.304-3.266,7.304-7.303c0-4.038-3.274-7.305-7.304-7.305
		C28.277,131.641,25.01,134.907,25.01,138.945z"/>
	<path fill="#7AC943" stroke="#000000" stroke-width="0.5" stroke-miterlimit="10" d="M22.273,159.79
		c0,4.029,3.264,7.302,7.301,7.302c4.033,0,7.301-3.272,7.301-7.302c0-4.038-3.268-7.302-7.301-7.302
		C25.537,152.488,22.273,155.752,22.273,159.79z"/>
	<path fill="#7AC943" stroke="#000000" stroke-width="0.5" stroke-miterlimit="10" d="M27.42,179.985
		c0,4.032,3.264,7.305,7.297,7.305c4.037,0,7.304-3.272,7.304-7.305c0-4.036-3.267-7.298-7.304-7.298
		C30.684,172.688,27.42,175.949,27.42,179.985z"/>
	<path fill="#FF1D25" stroke="#000000" stroke-width="0.5" stroke-miterlimit="10" d="M249.823,179.15
		c0,4.033,3.272,7.306,7.298,7.306c4.034,0,7.309-3.272,7.309-7.306c0-4.036-3.274-7.303-7.309-7.303
		C253.096,171.848,249.823,175.114,249.823,179.15z"/>
	<path fill="#FF1D25" stroke="#000000" stroke-width="0.5" stroke-miterlimit="10" d="M235.732,147.559
		c0,4.034,3.27,7.305,7.298,7.305c4.032,0,7.31-3.271,7.31-7.305c0-4.037-3.277-7.304-7.31-7.304
		C239.002,140.255,235.732,143.521,235.732,147.559z"/>
	<path fill="#FCEE21" stroke="#000000" stroke-width="0.5" stroke-miterlimit="10" d="M164.28,213.635
		c0,4.031,3.273,7.307,7.302,7.307c4.033,0,7.307-3.275,7.307-7.307s-3.273-7.302-7.307-7.302
		C167.554,206.333,164.28,209.604,164.28,213.635z"/>
	<path fill="#FCEE21" stroke="#000000" stroke-width="0.5" stroke-miterlimit="10" d="M164.939,144.189
		c0,4.038,3.267,7.309,7.306,7.309c4.029,0,7.3-3.271,7.3-7.309c0-4.031-3.271-7.301-7.3-7.301
		C168.206,136.889,164.939,140.158,164.939,144.189z"/>
	<path fill="#FF1D25" stroke="#000000" stroke-width="0.5" stroke-miterlimit="10" d="M241.982,211.309
		c0,4.034,3.27,7.305,7.298,7.305c4.032,0,7.31-3.271,7.31-7.305c0-4.037-3.277-7.304-7.31-7.304
		C245.252,204.005,241.982,207.271,241.982,211.309z"/>
	<path fill="#4AA9F5" stroke="#000000" stroke-width="0.5" stroke-miterlimit="10" d="M83.971,90.006
		c0,4.038,3.271,7.309,7.305,7.309c4.03,0,7.307-3.271,7.307-7.309c0-4.029-3.276-7.303-7.307-7.303
		C87.241,82.703,83.971,85.977,83.971,90.006z"/>
	<circle fill="#3FA9F5" stroke="#000000" stroke-width="0.5" stroke-miterlimit="10" cx="91.137" cy="155.255" r="7.305"/>
	<circle fill="#3FA9F5" stroke="#000000" stroke-width="0.5" stroke-miterlimit="10" cx="96.137" cy="196.505" r="7.305"/>
	<circle fill="#3FA9F5" stroke="#000000" stroke-width="0.5" stroke-miterlimit="10" cx="93.637" cy="212.755" r="7.305"/>
	<path fill="#7AC943" stroke="#000000" stroke-width="0.5" stroke-miterlimit="10" d="M20.683,115.541
		c0,4.03,3.266,7.299,7.299,7.299c4.034,0,7.301-3.269,7.301-7.299c0-4.039-3.267-7.301-7.301-7.301
		C23.948,108.24,20.683,111.502,20.683,115.541z"/>
	<path fill="#7AC943" stroke="#000000" stroke-width="0.5" stroke-miterlimit="10" d="M19.433,196.791
		c0,4.03,3.266,7.299,7.299,7.299c4.034,0,7.301-3.269,7.301-7.299c0-4.039-3.267-7.301-7.301-7.301
		C22.698,189.49,19.433,192.752,19.433,196.791z"/>
	<path fill="#7AC943" stroke="#000000" stroke-width="0.5" stroke-miterlimit="10" d="M26.933,211.791
		c0,4.03,3.266,7.299,7.299,7.299c4.034,0,7.301-3.269,7.301-7.299c0-4.039-3.267-7.301-7.301-7.301
		C30.198,204.49,26.933,207.752,26.933,211.791z"/>
</g>
</svg>
