<?xml version="1.0" encoding="utf-8"?>
<!-- Generator: Adobe Illustrator 16.0.0, SVG Export Plug-In . SVG Version: 6.00 Build 0)  -->
<!DOCTYPE svg PUBLIC "-//W3C//DTD SVG 1.1//EN" "http://www.w3.org/Graphics/SVG/1.1/DTD/svg11.dtd">
<svg version="1.1" id="Layer_1" xmlns="http://www.w3.org/2000/svg" xmlns:xlink="http://www.w3.org/1999/xlink" x="0px" y="0px"
	 width="413px" height="413px" viewBox="0 0 413 413" enable-background="new 0 0 413 413" xml:space="preserve">
<g>
	<line fill="none" stroke="#000000" stroke-width="5" stroke-miterlimit="10" x1="407.5" y1="411" x2="407.5" y2="3"/>
	<line fill="none" stroke="#000000" stroke-width="5" stroke-miterlimit="10" x1="220.5" y1="3" x2="220.5" y2="92"/>
	<polyline fill="none" stroke="#000000" stroke-width="5" stroke-miterlimit="10" points="176.5,411 176.5,256 109.5,202 109.5,140 
		109.5,202 34.5,256 34.5,411 	"/>
	<polyline fill="none" stroke="#000000" stroke-width="5" stroke-miterlimit="10" points="327.5,411 327.5,140 220.822,92 
		109.5,140 109.5,202 	"/>
	<path fill="none" stroke="#000000" stroke-width="5" stroke-miterlimit="10" d="M109.35,140"/>
	
		<line fill="none" stroke="#29ABE2" stroke-width="2" stroke-miterlimit="10" x1="336.577" y1="199.219" x2="400.881" y2="261.054"/>
	
		<line fill="none" stroke="#29ABE2" stroke-width="2" stroke-miterlimit="10" x1="399.951" y1="295.219" x2="335.648" y2="357.054"/>
</g>
<circle fill="#29ABE2" stroke="#29ABE2" stroke-width="2" stroke-miterlimit="10" cx="230.313" cy="16.5" r="5"/>
<circle fill="#29ABE2" stroke="#29ABE2" stroke-width="2" stroke-miterlimit="10" cx="220.313" cy="38.5" r="5"/>
<circle fill="#29ABE2" stroke="#29ABE2" stroke-width="2" stroke-miterlimit="10" cx="204.313" cy="16.5" r="5"/>
<circle fill="#29ABE2" stroke="#29ABE2" stroke-width="2" stroke-miterlimit="10" cx="183.313" cy="126.5" r="5"/>
<circle fill="#29ABE2" stroke="#29ABE2" stroke-width="2" stroke-miterlimit="10" cx="126.313" cy="115.5" r="5"/>
<circle fill="#29ABE2" stroke="#29ABE2" stroke-width="2" stroke-miterlimit="10" cx="152.313" cy="126.5" r="5"/>
<circle fill="#29ABE2" stroke="#29ABE2" stroke-width="2" stroke-miterlimit="10" cx="121.313" cy="167.5" r="5"/>
<circle fill="#29ABE2" stroke="#29ABE2" stroke-width="2" stroke-miterlimit="10" cx="105.313" cy="188.5" r="5"/>
<circle fill="#29ABE2" stroke="#29ABE2" stroke-width="2" stroke-miterlimit="10" cx="180.313" cy="110.5" r="5"/>
<circle fill="#29ABE2" stroke="#29ABE2" stroke-width="2" stroke-miterlimit="10" cx="110.313" cy="144.5" r="5"/>
<circle fill="#29ABE2" stroke="#29ABE2" stroke-width="2" stroke-miterlimit="10" cx="153.313" cy="227.5" r="5"/>
<circle fill="#29ABE2" stroke="#29ABE2" stroke-width="2" stroke-miterlimit="10" cx="67.313" cy="207.5" r="5"/>
<circle fill="#29ABE2" stroke="#29ABE2" stroke-width="2" stroke-miterlimit="10" cx="88.313" cy="217.5" r="5"/>
<circle fill="#29ABE2" stroke="#29ABE2" stroke-width="2" stroke-miterlimit="10" cx="78.313" cy="183.5" r="5"/>
<circle fill="#29ABE2" stroke="#29ABE2" stroke-width="2" stroke-miterlimit="10" cx="128.313" cy="213.5" r="5"/>
<circle fill="#29ABE2" stroke="#29ABE2" stroke-width="2" stroke-miterlimit="10" cx="178.313" cy="256.5" r="5"/>
<circle fill="#29ABE2" stroke="#29ABE2" stroke-width="2" stroke-miterlimit="10" cx="194.313" cy="270.5" r="5"/>
<circle fill="#29ABE2" stroke="#29ABE2" stroke-width="2" stroke-miterlimit="10" cx="180.313" cy="343.5" r="5"/>
<circle fill="#29ABE2" stroke="#29ABE2" stroke-width="2" stroke-miterlimit="10" cx="183.313" cy="295.5" r="5"/>
<circle fill="#29ABE2" stroke="#29ABE2" stroke-width="2" stroke-miterlimit="10" cx="170.313" cy="372.5" r="5"/>
<circle fill="#29ABE2" stroke="#29ABE2" stroke-width="2" stroke-miterlimit="10" cx="193.313" cy="365.5" r="5"/>
<circle fill="#29ABE2" stroke="#29ABE2" stroke-width="2" stroke-miterlimit="10" cx="165.313" cy="321.5" r="5"/>
<circle fill="#29ABE2" stroke="#29ABE2" stroke-width="2" stroke-miterlimit="10" cx="50.313" cy="254.5" r="5"/>
<circle fill="#29ABE2" stroke="#29ABE2" stroke-width="2" stroke-miterlimit="10" cx="46.313" cy="235.5" r="5"/>
<circle fill="#29ABE2" stroke="#29ABE2" stroke-width="2" stroke-miterlimit="10" cx="38.313" cy="275.5" r="5"/>
<circle fill="#29ABE2" stroke="#29ABE2" stroke-width="2" stroke-miterlimit="10" cx="45.313" cy="300.5" r="5"/>
<circle fill="#29ABE2" stroke="#29ABE2" stroke-width="2" stroke-miterlimit="10" cx="58.313" cy="357.5" r="5"/>
<circle fill="#29ABE2" stroke="#29ABE2" stroke-width="2" stroke-miterlimit="10" cx="22.313" cy="333.5" r="5"/>
<circle fill="#29ABE2" stroke="#29ABE2" stroke-width="2" stroke-miterlimit="10" cx="41.313" cy="323.5" r="5"/>
<circle fill="#29ABE2" stroke="#29ABE2" stroke-width="2" stroke-miterlimit="10" cx="20.313" cy="391.5" r="5"/>
<circle fill="#29ABE2" stroke="#29ABE2" stroke-width="2" stroke-miterlimit="10" cx="202.313" cy="82.5" r="5"/>
<circle fill="#29ABE2" stroke="#29ABE2" stroke-width="2" stroke-miterlimit="10" cx="240.313" cy="115.5" r="5"/>
<circle fill="#29ABE2" stroke="#29ABE2" stroke-width="2" stroke-miterlimit="10" cx="245.313" cy="94.5" r="5"/>
<circle fill="#29ABE2" stroke="#29ABE2" stroke-width="2" stroke-miterlimit="10" cx="293.313" cy="118.5" r="5"/>
<circle fill="#29ABE2" stroke="#29ABE2" stroke-width="2" stroke-miterlimit="10" cx="306.313" cy="141.5" r="5"/>
<circle fill="#29ABE2" stroke="#29ABE2" stroke-width="2" stroke-miterlimit="10" cx="327.313" cy="136.5" r="5"/>
<circle fill="#29ABE2" stroke="#29ABE2" stroke-width="2" stroke-miterlimit="10" cx="337.313" cy="162.5" r="5"/>
<circle fill="#29ABE2" stroke="#29ABE2" stroke-width="2" stroke-miterlimit="10" cx="316.313" cy="188.5" r="5"/>
<circle fill="#29ABE2" stroke="#29ABE2" stroke-width="2" stroke-miterlimit="10" cx="332.313" cy="222.5" r="5"/>
<circle fill="#29ABE2" stroke="#29ABE2" stroke-width="2" stroke-miterlimit="10" cx="307.313" cy="247.5" r="5"/>
<circle fill="#29ABE2" stroke="#29ABE2" stroke-width="2" stroke-miterlimit="10" cx="335.313" cy="264.5" r="5"/>
<circle fill="#29ABE2" stroke="#29ABE2" stroke-width="2" stroke-miterlimit="10" cx="332.313" cy="292.5" r="5"/>
<circle fill="#29ABE2" stroke="#29ABE2" stroke-width="2" stroke-miterlimit="10" cx="311.313" cy="328.5" r="5"/>
<circle fill="#29ABE2" stroke="#29ABE2" stroke-width="2" stroke-miterlimit="10" cx="340.313" cy="391.5" r="5"/>
<circle fill="#29ABE2" stroke="#29ABE2" stroke-width="2" stroke-miterlimit="10" cx="316.313" cy="377.5" r="5"/>
<circle fill="#29ABE2" stroke="#29ABE2" stroke-width="2" stroke-miterlimit="10" cx="395.313" cy="11.5" r="5"/>
<circle fill="#29ABE2" stroke="#29ABE2" stroke-width="2" stroke-miterlimit="10" cx="388.313" cy="47.5" r="5"/>
<circle fill="#29ABE2" stroke="#29ABE2" stroke-width="2" stroke-miterlimit="10" cx="402.313" cy="78.5" r="5"/>
<circle fill="#29ABE2" stroke="#29ABE2" stroke-width="2" stroke-miterlimit="10" cx="395.313" cy="121.5" r="5"/>
<circle fill="#29ABE2" stroke="#29ABE2" stroke-width="2" stroke-miterlimit="10" cx="397.313" cy="159.5" r="5"/>
<circle fill="#29ABE2" stroke="#29ABE2" stroke-width="2" stroke-miterlimit="10" cx="385.313" cy="196.5" r="5"/>
<circle fill="#29ABE2" stroke="#29ABE2" stroke-width="2" stroke-miterlimit="10" cx="401.313" cy="222.5" r="5"/>
<circle fill="#29ABE2" stroke="#29ABE2" stroke-width="2" stroke-miterlimit="10" cx="400.313" cy="333.5" r="5"/>
<circle fill="#29ABE2" stroke="#29ABE2" stroke-width="2" stroke-miterlimit="10" cx="390.313" cy="396.5" r="5"/>
<circle fill="#29ABE2" stroke="#29ABE2" stroke-width="2" stroke-miterlimit="10" cx="402.313" cy="374.5" r="5"/>
<circle fill="#29ABE2" stroke="#29ABE2" stroke-width="2" stroke-miterlimit="10" cx="190.313" cy="398.5" r="5"/>
</svg>
